<mxfile host="app.diagrams.net" agent="Mozilla/5.0 (Macintosh; Intel Mac OS X 10_15_7) AppleWebKit/537.36 (KHTML, like Gecko) Chrome/131.0.0.0 Safari/537.36" version="26.1.1">
  <diagram name="Page-1" id="f2l3i-yYHyM2qs8Bdd_H">
    <mxGraphModel dx="1679" dy="943" grid="0" gridSize="10" guides="1" tooltips="1" connect="1" arrows="1" fold="1" page="1" pageScale="1" pageWidth="1100" pageHeight="850" math="0" shadow="0">
      <root>
        <mxCell id="0" />
        <mxCell id="1" parent="0" />
        <mxCell id="nW7X3oySglk32Ojcf386-31" value="" style="whiteSpace=wrap;html=1;aspect=fixed;dashed=1;" vertex="1" parent="1">
          <mxGeometry x="143.5" y="280" width="226" height="226" as="geometry" />
        </mxCell>
        <mxCell id="nW7X3oySglk32Ojcf386-12" value="" style="shape=image;verticalLabelPosition=bottom;labelBackgroundColor=default;verticalAlign=top;aspect=fixed;imageAspect=0;image=data:image/png,iVBORw0KGgoAAAANSUhEUgAAAOEAAADhCAMAAAAJbSJIAAAAhFBMVEX////lNavlMarkJKf0tNznSbHzr9rkKqjjF6XkH6b//f7+9vv74/L98vnkIqbxo9T3zefmPa71wOHujMr75/T3yub0ud7nRbDuhsjvlM763e/xn9L2wuLrcL/87ffyqNbsesPpWrfpYrroU7X51evrcsDwmM/uicntgMXoWLbpYbrqab3MsiK0AAANEklEQVR4nO1da3vqrBJtiBZQq1Ztvbba2rv///8dtcdAgBkmF0Lqu9en/WxtZIXLzCwG5ubmH/6hAAaT0XK6HE1WsRsSBg87LtKUc56mgu8eYjendnQSyRMFLpNO7CbVitVcsiQPJudXNFjXwuR35ijWsRtWF96lg98J8j120+rBUwoQTJL0KXbj6sBiCBJMkuEidvOqYyIQgkkiHmM3sCr6OMEjxX7sJlbEjnsY8l3sJlbDzNeFx06cxW5kJSx8XXjsxD+92PQgS6hD9mI3swIeSAz/shc+9Q/S4zBdxm5mBby4/FET7CV2MyuA0oXHTozdzPLo+W3FCeLvLjV3RIZ3sRtaGtfP8PpHKW2lYX94pfkPWIvl1Vv8W1jAUEhvYzezNJ6fKG7pSZD6m4tpbyloLs1xnIqP2K0tgUdO5XceqWwSu8EFsdrTBqg2VPd/SQK/2zlFbhxM7P7MdFyTJ2AeXI5iN52ETWKYCKw7jc/S+/bH+4MXY5eJyx+YInuR+e5m4mcQmwKK/pcxAZl4upvBi44cPB+sv1i0WCPepkaPyPnbzc030of7m5vxvbGxwVvr5DzcGxOQ89M+7wSzG/JkBm/NFzOcj2OTcWBmD7fpOe5Tq4n6XPvX6Sv9hT24n+PSsdCbWm08/Kr166xjeZJlKiRZp6W//trgx/h7Lpatios7pouWLftKyOBfN4PJdjldbieDm8/s++L/nWUZmZS3J5fhrWtaiHR7+UztPaX6EtlXPZvtdI8My3F05N4a5QHh+ckaoF8ZmVXWhYr0GbfZAioyGpazx0Qb4qoPYVqIF82F3l+azO6Nv5tnn3TVf1oOO4+er/HIzNmTbPSPswYL0x0bZ70r9fk2sR8YM67yvfJe1r3s1frjQ/Yhz62a5qBIcoOidvQG481kvHL6UY5pY8Q/SohybPQ+q1V2mv/gHZnYOvqr8WQzHlSwKqv1XgqZplKK+aflZdhLX9dY+kAOv1hm49Hk/2YmiXG5Nf96/DkX8tQ4Iffrcp086Qqu3BEu2VZ/WQ7zZeWNZOOQcdd71sbwwfwMNrC/f7plUm+c2G/MJ3ixMm1cjsPRBcl/5nJB3txriUZDrUPWCHE4Sa9ZTz9yU6VkhUWQpVOGEIczDaIb6bQHOShbMrc/BB3d3sG1HcJEEWG59wpkavHk2Q4FkuHc5Xvcqh6CXBPVy0Nrnt0446rjYHhOAI1kaK/XIMEuqLMwNpnTwrme8svg9Lz37Iekc7XcmhKA7G4YGG7yPZXhCyYkpebQ+XSH5CpJQcKB0HPWz0BWjT0hsH0C/kMj+EnZbLjwewVkFZUMlWLzQ8VWAnjQ4KWAMpm6rJKFMW1b8/xAWBp7zZqF7w6qJR/cY7MMEwJwyuu4p74yLlzLwy8elKXA0yuVxiFhk0YXYC0H34EOlvCqPwtwpX6RvSbmm/3ZJipL4C/RRfShP2wmdqH8xizsVk0vnyHWIkhM8aZuhPg7cUx6kCek6aslcuf7wZsv5Z6j4e4jIw1V6ZPpCOmSx3Z7wlLVaOmP0cmvo/dBapsvmZPymnztJg68C8hD+o42UPFfeyaZiiHuyX9TFg8N1GVpQ7IaAldaadMQH6UkA6CDalrWdUzEDuk14WNdGXGiE6W5BwwL2ElrRJLi9mJLYsiwoy5+R8yC5uJhKQtPJEPm2depzlCTLugp6lNLAnfhQGMIe1onkFJ80GXdFxA5QQq1tEejDPFROqExhMMFLagtsgvY8YfLxByyJMX11RXNpYEbjwoTCPySB3WASdyo0jJCJfieMXEJhVe2On2H9Pp9xzeQtALCQ3qZxGcLhB4oCTwFn05h6DVRlMUUXg1gkdcLj3x8BsVceJMAKKnZ4CGXGaGVIAhvh3IEx5807l+S4RBMidzgSEOAbeP8H/7glRCu+c/Tgc4jsGFGBbIVZ38FAmV2+Lw/eDmnrPgY4O3UDF1PJ9JmB5qIhnibro3rQgC3xBUG+Agjhmsr9CkCGoCu5IOC2Pk9vlu8cURff4M8RYLDwE4gKQwVxPMv6DtTZCqC89fCI0hRgAQHtAgIByXymsKNK7Dj/2ZuL/2CIRqwcoZYIVJ5ZGsAcsxk69ZOeVpo9t+Zm3fJOaEOdmo1JaJK7sRGEh6zmg/txolD0dSbB2MvnQ05FlomZJEbh3aOCPnWlue3wJicl0kufnhSu3dMvKAi0YgucuPQpjMqdz1qW1JcPpVNnu5lMeccj9cpiyARC6qa3J9ffrJKFuMl5vQ5KQRDRgV9R+Di31RKKSYyLChy4yBL4E0yJDiUBUCVwBtkOPEHBUVAlcAbZFhc5Mah7ZBja0hzDD+Ki9w4iFkOjTHUMkY+K/yUDpoE3hhDJXukdR126WUeC0cku6YYlhS5cZBk16YYZrpCQZEbB+WpDTEsLXLj0CRwsP3NMFQiNzZjSoAwu5thSFv1SoAggTfCkGi5yuDDK4E3wvBA8z7KoKc8JUACb4LhmJqfVwZeCbwJhioKKCdy4/BFLA0w1CK5EIfMfBJ4eIaayL2r8BswPMpBeIYLYlJhaaibQZ3qT3CGVFWsAnAFLzhDbce/wi/gUCrst/1haIZq+4aYn1cGG0xJD80Qfb21QUng9m5IYIbrukRuHNiOVliGNYrcOBawax+WYY0iNw5kZzkoQ8KOe12AswOCMqxX5MYBZniEZEjIfKkPYJZOQIb+0K1WQEFoQIYV8vPKABISwjHUJJS6RG4cgBgUjuETfgi9fgDH2oMxpEiZNcMtygZjqFbvOkVuHF2XdQrFkJRVXzecmyOBGGoid5M1YlwSeCCGwURuHNp1U9lJnDAMtUzuZm//dWw0h2FIPGUWAEn2w5dkgSAMyYfQ64ed8BGEIf0Qev2wTqaGYBhY5MZhJV4FYFjoEHr9ME+IB2BY6BB6/bgzXnD9DFfhRW4chgReP8Oih9DrR36hq52hSsEW4URuHPlk8toZUtLoQyPncNTNsMQh9PqRk8BrYajyvGcO1zcCtIM5A5XnXfZp43ftXIk6i1Nbfl4ZKAlcaxFP38vkY4277quLgovcOG6dVyBx0S3KsW9eLHtBAyI3DuAYKRNPhcbWCixO4b3CJzTA21c4L7DN9wDeO9Wg+gQBPEbK6Hb6DTz/1oKKk1/IIV5qAugMvTlMxK1BMULPOhNN9RwjGHhX2wf8BC9xHVSaT5WnBILvQD7l4kT/XVg1ZqwXhdsa6iBonJ/eOxUi1pwktM2bOEG5P2QYq5b2I+FOR28V7EfC3SY1HW8qDsrVMt5Ig3SfVqQaxbT7aXwb77S7vubdGPCYscvrxwkSKoX/cowBWtMkbvVptwq2Gp5LHSkLTcvhua+Ndm9iq+FZTK+fIe3OvVYjxf0R2qVvrQZ8Xd4ZfZq14GkM0C719h2NIFlVftuJgRGFoje4o9UojqQoktrmixAxjUYhSq3Jse8qszP8u9Okx0SoNWmVggQa5hcD0XKFOY5AYYswoJZPpuSI0DoxOV3t05icYZfOgd475SCkR87S0VCtyTd6+WSaEPhBt/pMHIJntxUpnyyJV8UdkCHPjDozwWtNrnPFdBhq9ul3AnyDo57xjllP1VGsqz5MchVYjiv4bGBV2lItKXDG7AAMVM5mlIJrdWGVL5/8a4UHUJ0LWehWh7Vr7DP5ejYQd3Zd4xC1Jo1KSPyyY9L/cXUjK1oLcrV31F3LoufVd/hak/lqVrmyNp0a6q4dsdnna+fxkb6kTMwfqbnWpFE+2SDQG3G9dl4q9uW8yMH6OxVyeK5/uLAsn11rEi2uUwiz19wAdb298eJc/3AoRfq9ruBB9gZvmw1Qw5Jca7Lwj06NCQhYuf5qvNm8Valh6YVdCFjWsH/aSfMTMG7FXE+tyRI4vrXc0A9lichAa00Wh1E+mbeicrWj1uRnyanRy69el6KV8fFgOnKcl4qr8uWTs+rsrcDWcIiZdBbuVLXVHTAqqzUUmZFBKL46/uIiTTnnaSr4zlyP+vkYqcHomoyB6S0ezZg2izqJ5oScXKQkt4asjQm4iJkACcIugswucZWjuvBxIGcu0OY+PwFf4uXoerC24qr9eTo6I5UsGjAqjears7cN7mLkO0gWkTs4Rmot7ILy6Q8sPKQ700XbRXXRaHg0S/ZiOhLHYqTWomfFVTSohan9eIZyqLHehGKkluJtDktiLrirs7cbVlyFIX6MVAZWXAUPUE+CSHsxe6VVNW1LjFQGW8pI9aQWtBu0PfNmT/bXixfKTIx42q86SMspq1JcKDJoFTET8XdXGkoxxSTY9adN4PoZXv8ovf6V5j9gLa7f4lOKv8Klaf8CSGdA0titrARf2daksasJQ4FwQqWR2yUDAju2+9uFYe8hDg9v4njge4gbwASnWKQ6aluxwI5FwsV3/xKe4OzXtGxt5JYB3Zm5DkC7a23fZiqAlS2B6zukV4HOvb57yri8/6sqMIyHHZapcCUYTEbL6XLkzjb5h3+A8D/KLsHcjkhYTgAAAABJRU5ErkJggg==;" vertex="1" parent="1">
          <mxGeometry x="280" y="288" width="64.06" height="64.06" as="geometry" />
        </mxCell>
        <mxCell id="nW7X3oySglk32Ojcf386-15" value="" style="shape=image;verticalLabelPosition=bottom;labelBackgroundColor=default;verticalAlign=top;aspect=fixed;imageAspect=0;image=https://images-cdn.openxcell.com/wp-content/uploads/2024/07/24154156/dango-inner-2.webp;" vertex="1" parent="1">
          <mxGeometry x="215.5" y="358" width="82" height="82" as="geometry" />
        </mxCell>
        <mxCell id="nW7X3oySglk32Ojcf386-16" value="" style="shape=image;verticalLabelPosition=bottom;labelBackgroundColor=default;verticalAlign=top;aspect=fixed;imageAspect=0;image=https://cdn-icons-png.flaticon.com/512/521/521453.png;" vertex="1" parent="1">
          <mxGeometry x="47" y="355" width="76" height="76" as="geometry" />
        </mxCell>
        <mxCell id="nW7X3oySglk32Ojcf386-22" value="" style="shape=image;verticalLabelPosition=bottom;labelBackgroundColor=default;verticalAlign=top;aspect=fixed;imageAspect=0;image=https://cdn-icons-png.flaticon.com/512/9923/9923194.png;" vertex="1" parent="1">
          <mxGeometry x="976" y="355" width="81" height="81" as="geometry" />
        </mxCell>
        <mxCell id="nW7X3oySglk32Ojcf386-26" value="" style="shape=image;verticalLabelPosition=bottom;labelBackgroundColor=default;verticalAlign=top;aspect=fixed;imageAspect=0;image=https://cloud-icons.onemodel.app/aws/Architecture-Service-Icons_01312023/Arch_Front-End-Web-Mobile/64/Arch_AWS-Amplify_64@5x.png;" vertex="1" parent="1">
          <mxGeometry x="328" y="358" width="87" height="87" as="geometry" />
        </mxCell>
        <mxCell id="nW7X3oySglk32Ojcf386-27" value="" style="shape=image;verticalLabelPosition=bottom;labelBackgroundColor=default;verticalAlign=top;aspect=fixed;imageAspect=0;image=https://upload.wikimedia.org/wikipedia/commons/thumb/5/5c/Amazon_Lambda_architecture_logo.svg/2048px-Amazon_Lambda_architecture_logo.svg.png;" vertex="1" parent="1">
          <mxGeometry x="553" y="359.25" width="84.5" height="84.5" as="geometry" />
        </mxCell>
        <mxCell id="nW7X3oySglk32Ojcf386-28" value="" style="shape=image;verticalLabelPosition=bottom;labelBackgroundColor=default;verticalAlign=top;aspect=fixed;imageAspect=0;image=https://cdn.prod.website-files.com/667079b02bf838d86761e20b/66a1cbf5f5756a7741c0be1e_DynamoDB.svg;" vertex="1" parent="1">
          <mxGeometry x="553" y="500.75" width="85.5" height="85.5" as="geometry" />
        </mxCell>
        <mxCell id="nW7X3oySglk32Ojcf386-30" value="" style="shape=image;verticalLabelPosition=bottom;labelBackgroundColor=default;verticalAlign=top;aspect=fixed;imageAspect=0;image=https://help.sumologic.com/img/integrations/amazon-aws/ses.png;" vertex="1" parent="1">
          <mxGeometry x="731" y="358" width="84.5" height="84.5" as="geometry" />
        </mxCell>
      </root>
    </mxGraphModel>
  </diagram>
</mxfile>
